HIERARCHY
ROOT Hips
{
	OFFSET -0.001795 -0.223333 0.028219
	CHANNELS 6 Xposition Yposition Zposition Zrotation Yrotation Xrotation 
	JOINT LeftUpLeg
	{
		OFFSET 0.069520 -0.091406 -0.006815
		CHANNELS 3 Zrotation Yrotation Xrotation
		JOINT LeftLeg
		{
			OFFSET 0.034277 -0.375199 -0.004496
			CHANNELS 3 Zrotation Yrotation Xrotation
			JOINT LeftFoot
			{
				OFFSET -0.013596 -0.397961 -0.043693
				CHANNELS 3 Zrotation Yrotation Xrotation
				JOINT LeftToe
				{
					OFFSET 0.026358 -0.055791 0.119288
					CHANNELS 3 Zrotation Yrotation Xrotation
					End Site
					{
						OFFSET 0.000000 0.000000 0.000000
					}
				}
			}
		}
	}
	JOINT RightUpLeg
	{
		OFFSET -0.067670 -0.090522 -0.004320
		CHANNELS 3 Zrotation Yrotation Xrotation
		JOINT RightLeg
		{
			OFFSET -0.038290 -0.382569 -0.008850
			CHANNELS 3 Zrotation Yrotation Xrotation
			JOINT RightFoot
			{
				OFFSET 0.015774 -0.398415 -0.042312
				CHANNELS 3 Zrotation Yrotation Xrotation
				JOINT RightToe
				{
					OFFSET -0.025372 -0.048144 0.123348
					CHANNELS 3 Zrotation Yrotation Xrotation
					End Site
					{
						OFFSET 0.000000 0.000000 0.000000
					}
				}
			}
		}
	}
	JOINT Spine
	{
		OFFSET -0.002533 0.108963 -0.026696
		CHANNELS 3 Zrotation Yrotation Xrotation
		JOINT Spine1
		{
			OFFSET 0.005487 0.135180 0.001092
			CHANNELS 3 Zrotation Yrotation Xrotation
			JOINT Spine2
			{
				OFFSET 0.001457 0.052922 0.025425
				CHANNELS 3 Zrotation Yrotation Xrotation
				JOINT Neck
				{
					OFFSET -0.002778 0.213870 -0.042857
					CHANNELS 3 Zrotation Yrotation Xrotation
					JOINT Head
					{
						OFFSET 0.005152 0.064970 0.051349
						CHANNELS 3 Zrotation Yrotation Xrotation
						End Site
						{
							OFFSET 0.000000 0.000000 0.000000
						}
					}
				}
				JOINT LeftShoulder
				{
					OFFSET 0.078845 0.121749 -0.034090
					CHANNELS 3 Zrotation Yrotation Xrotation
					JOINT LeftArm
					{
						OFFSET 0.090977 0.030469 -0.008868
						CHANNELS 3 Zrotation Yrotation Xrotation
						JOINT LeftForeArm
						{
							OFFSET 0.259612 -0.012772 -0.027456
							CHANNELS 3 Zrotation Yrotation Xrotation
							JOINT LeftHand
							{
								OFFSET 0.249234 0.008986 -0.001171
								CHANNELS 3 Zrotation Yrotation Xrotation
								End Site
								{
									OFFSET 0.000000 0.000000 0.000000
								}
							}
						}
					}
				}
				JOINT RightShoulder
				{
					OFFSET -0.081759 0.118833 -0.038615
					CHANNELS 3 Zrotation Yrotation Xrotation
					JOINT RightArm
					{
						OFFSET -0.096012 0.032551 -0.009143
						CHANNELS 3 Zrotation Yrotation Xrotation
						JOINT RightForeArm
						{
							OFFSET -0.253742 -0.013329 -0.021401
							CHANNELS 3 Zrotation Yrotation Xrotation
							JOINT RightHand
							{
								OFFSET -0.255298 0.007772 -0.005559
								CHANNELS 3 Zrotation Yrotation Xrotation
								End Site
								{
									OFFSET 0.000000 0.000000 0.000000
								}
							}
						}
					}
				}
			}
		}
	}
}
MOTION
Frames: 12
Frame Time: 0.050000
0.000000 0.942613 0.000000 -1.578053 -8.042321 4.233933 -1.486318 0.560174 4.816800 4.172387 -0.064688 -5.996042 -10.276879 -17.502283 6.404577 0.000000 0.000000 0.000000 0.681749 -0.157672 1.223695 -0.028080 -0.127021 -3.368059 6.549855 10.128792 7.316924 0.000000 0.000000 0.000000 2.636826 0.040240 -1.435255 -3.876468 2.045701 4.023293 -0.946727 2.656671 2.201897 4.743401 -1.645783 -17.104656 0.000000 0.000000 0.000000 -31.101882 -9.148681 3.426294 -26.708079 4.449034 -3.841575 4.354011 -16.449300 0.006058 0.000000 0.000000 0.000000 28.488898 4.597303 -0.400593 28.151445 -12.231127 -4.722201 -7.431681 11.854411 -0.259402 0.000000 0.000000 0.000000 
0.002260 0.941667 0.002597 -1.505203 -8.057965 4.365202 -0.520683 0.585344 5.506117 2.013089 0.146982 -7.198533 -10.620183 -17.745102 6.984576 0.000000 0.000000 0.000000 1.036115 -0.019030 -0.342184 -1.098713 0.070610 -0.549995 6.006006 10.053121 5.920284 0.000000 0.000000 0.000000 2.533816 0.037870 -1.414387 -3.449788 1.910415 5.850362 -2.714455 2.749041 0.600415 6.091497 -2.142542 -18.409103 0.000000 0.000000 0.000000 -28.959009 -8.404392 2.561572 -26.927321 4.842756 -3.804176 5.364961 -18.145202 -0.160754 0.000000 0.000000 0.000000 28.885063 3.538682 -0.910300 28.219526 -12.885987 -4.837842 -9.217295 13.212539 -0.469667 0.000000 0.000000 0.000000 
0.004836 0.939770 0.004895 -1.281321 -7.994000 4.683838 -0.214589 0.550072 5.350200 0.705296 0.229424 -7.354848 -10.715236 -18.023939 6.833551 0.000000 0.000000 0.000000 0.991724 0.194796 -2.378016 -1.736232 0.316104 2.701907 5.327181 9.858776 4.298845 0.000000 0.000000 0.000000 2.970466 0.010663 -1.144088 -4.061805 2.101934 3.321177 -2.601241 3.725422 2.661647 7.718889 -3.209666 -17.380181 0.000000 0.000000 0.000000 -27.293317 -9.378990 3.004830 -27.649237 5.106995 -4.003000 3.974727 -18.022656 0.042213 0.000000 0.000000 0.000000 27.784229 3.733337 -0.290288 30.213239 -12.960842 -5.438094 -9.146735 11.991680 -0.386167 0.000000 0.000000 0.000000 
0.007642 0.938593 0.007103 -1.331955 -7.849227 4.964518 0.899307 0.562155 6.139934 -1.503610 0.410173 -9.059654 -11.239970 -18.320472 7.779192 0.000000 0.000000 0.000000 0.479911 0.594605 -6.051658 -0.713896 0.580935 9.241604 4.341283 8.819793 2.771856 0.000000 0.000000 0.000000 2.754357 -0.007117 -0.893366 -3.753848 1.947155 3.490315 -2.868386 4.188927 2.618752 8.205168 -3.197967 -18.818635 0.000000 0.000000 0.000000 -27.258788 -9.113755 2.596337 -27.302358 5.311616 -3.929087 3.033939 -18.232980 0.178966 0.000000 0.000000 0.000000 28.259263 3.652466 -0.124956 31.271737 -13.152932 -5.747929 -11.268438 11.811336 -0.538031 0.000000 0.000000 0.000000 
0.010614 0.937139 0.008852 -0.949997 -7.116117 4.112813 1.125736 0.629373 7.015562 -2.745418 0.458700 -8.972150 -11.790375 -19.158460 7.975706 0.000000 0.000000 0.000000 -0.076696 1.037239 -10.220284 0.084576 1.033361 18.708316 3.152326 6.331363 2.297380 0.000000 0.000000 0.000000 2.857947 -0.086526 0.352483 -3.623179 1.923720 4.689395 -3.288516 4.041872 1.495380 8.836189 -3.631834 -17.910142 0.000000 0.000000 0.000000 -27.619756 -9.834134 2.828701 -27.176712 5.851541 -3.920382 2.949963 -18.508043 0.186826 0.000000 0.000000 0.000000 28.541162 4.002410 0.212221 32.240206 -11.206074 -5.500372 -12.988699 10.990393 -0.600670 0.000000 0.000000 0.000000 
0.013313 0.936731 0.010498 -0.697275 -6.402198 3.035406 1.206702 0.760483 8.472543 -3.424441 0.489798 -9.441153 -12.440027 -19.859384 8.594309 0.000000 0.000000 0.000000 -0.482805 1.440318 -14.138992 1.154056 1.304301 27.760363 2.592599 3.356624 4.684321 0.000000 0.000000 0.000000 2.109493 -0.202915 2.763540 -3.417104 1.746927 3.263083 -2.632953 3.724336 3.097846 9.228525 -3.470731 -20.668211 0.000000 0.000000 0.000000 -28.284499 -10.313801 3.287566 -27.229999 5.879766 -4.034412 2.427113 -19.085222 0.282583 0.000000 0.000000 0.000000 28.313040 4.784496 0.711635 33.116304 -8.754178 -5.185313 -14.110304 11.959783 -0.770428 0.000000 0.000000 0.000000 
0.015259 0.936468 0.012935 -0.829959 -5.310161 2.443264 1.643724 0.804558 9.508458 -3.807328 0.496800 -9.981587 -13.185186 -20.714610 9.167598 0.000000 0.000000 0.000000 -0.664614 1.824278 -17.885604 1.603691 1.390787 33.269252 3.437504 2.796033 8.862285 0.000000 0.000000 0.000000 2.434055 -0.300283 4.249470 -2.334591 1.178354 3.360701 -3.348352 2.795534 3.082443 9.531437 -3.696200 -20.464933 0.000000 0.000000 0.000000 -28.836688 -10.346867 3.381837 -28.000473 6.470662 -4.291665 2.106361 -19.895833 0.351909 0.000000 0.000000 0.000000 28.907595 5.892463 1.334982 33.002997 -6.349048 -4.594384 -14.555687 14.357348 -1.043458 0.000000 0.000000 0.000000 
0.016073 0.935346 0.017119 -0.866256 -5.253482 2.227507 1.685161 0.810994 9.621189 -3.912041 0.494733 -9.260625 -13.063884 -20.971128 8.561377 0.000000 0.000000 0.000000 -1.605363 2.065266 -21.249533 0.416520 1.825689 32.859931 7.863484 7.062983 16.499225 0.000000 0.000000 0.000000 1.951651 -0.347749 5.631571 -1.648854 0.817637 2.781912 -2.316698 2.514146 3.670513 9.575415 -3.628548 -21.466267 0.000000 0.000000 0.000000 -30.010853 -10.492047 3.723323 -29.431646 7.465905 -4.817466 1.559551 -22.499408 0.515758 0.000000 0.000000 0.000000 28.261826 7.555903 2.264496 33.556830 -4.457658 -4.213349 -15.390244 17.846338 -1.509166 0.000000 0.000000 0.000000 
0.014987 0.934374 0.023766 -0.890795 -5.294281 1.842170 1.518429 0.929201 10.689855 -3.472812 0.481234 -9.588343 -13.003651 -21.095332 8.282508 0.000000 0.000000 0.000000 -2.560377 2.017432 -22.195908 -3.274419 2.223372 22.525934 22.220723 16.134030 37.445965 0.000000 0.000000 0.000000 2.333070 -0.431615 6.759001 -1.447605 0.724073 3.627423 -1.870839 2.628876 3.052591 9.470335 -3.473358 -21.884301 0.000000 0.000000 0.000000 -30.875285 -10.701112 3.816110 -31.109079 7.867756 -5.173912 0.808234 -23.844745 0.702419 0.000000 0.000000 0.000000 28.752771 8.464449 2.847817 33.736139 -1.612885 -3.522331 -16.291210 19.824121 -1.857153 0.000000 0.000000 0.000000 
0.011559 0.932427 0.032941 -0.629019 -5.174528 1.821585 0.955284 1.060039 11.447866 -2.585340 0.451715 -9.840153 -12.885891 -21.352321 7.695791 0.000000 0.000000 0.000000 -3.717367 1.940368 -23.422965 -5.888511 2.038731 14.191118 28.408913 23.204461 39.449100 0.000000 0.000000 0.000000 2.464493 -0.488791 7.610666 -1.180912 0.583324 3.487995 -1.202607 2.046125 3.149802 9.719067 -4.078758 -19.588869 0.000000 0.000000 0.000000 -31.984822 -11.169517 4.474392 -32.717999 9.013994 -5.817127 0.665641 -25.496247 0.803701 0.000000 0.000000 0.000000 29.161691 9.838749 3.480977 34.256244 0.229924 -3.052066 -17.563606 22.447966 -2.415285 0.000000 0.000000 0.000000 
0.005869 0.930570 0.044691 -0.358704 -5.434895 2.556374 0.379900 1.133753 11.496356 -1.629882 0.424278 -9.941379 -12.535619 -21.233943 7.045855 0.000000 0.000000 0.000000 -5.501078 1.689134 -23.731555 -5.975007 1.348514 7.653033 23.208754 23.081412 30.313187 0.000000 0.000000 0.000000 3.153262 -0.554053 7.662377 -1.582887 0.791192 3.223014 -0.812435 2.307451 2.883953 9.490181 -4.065224 -18.803049 0.000000 0.000000 0.000000 -31.675249 -11.563069 4.726506 -34.846087 10.210161 -6.512751 -1.251170 -27.604966 1.336994 0.000000 0.000000 0.000000 31.197780 10.767276 4.142244 33.275473 1.506342 -2.636782 -18.836640 24.427117 -2.920525 0.000000 0.000000 0.000000 
-0.002090 0.926575 0.058030 0.344615 -5.612930 3.418923 -0.624320 1.232646 11.322714 -0.475143 0.381268 -9.759041 -12.037570 -21.312550 5.785025 0.000000 0.000000 0.000000 -6.468999 1.550090 -23.736479 -7.109253 1.135375 4.044875 21.597122 24.905248 25.257158 0.000000 0.000000 0.000000 3.433694 -0.606806 7.980992 -1.783030 0.908603 4.091435 -0.389417 2.659140 2.193117 10.242409 -4.552023 -18.164979 0.000000 0.000000 0.000000 -31.933746 -11.960777 4.897991 -36.416149 10.654978 -6.882161 -2.458819 -29.128391 1.716920 0.000000 0.000000 0.000000 32.797940 12.218840 5.293406 32.365122 3.319920 -2.120530 -19.811783 23.994979 -3.040205 0.000000 0.000000 0.000000 
